<svg viewBox="0 0 64 64" fill="none" xmlns="http://www.w3.org/2000/svg">
  <rect width="64" height="64" rx="14" fill="#FAF8F5"/>
  <rect width="64" height="64" rx="14" stroke="#C5A059" stroke-width="1.5" stroke-opacity="0.35"/>
  
  <!-- Top 4-Point Golden Star -->
  <path d="M32 6L33.5 11.5L39 13L33.5 14.5L32 20L30.5 14.5L25 13L30.5 11.5L32 6Z" fill="#C5A059"/>

  <!-- Upper Golden Eye Arch -->
  <path d="M14 28C22 17 42 17 50 28" stroke="#C5A059" stroke-width="2.5" stroke-linecap="round"/>

  <!-- Central Optical Halo Rays -->
  <circle cx="32" cy="33" r="10" stroke="#E5C07B" stroke-width="1" stroke-dasharray="1.5 1.5"/>

  <!-- Inner Refractive Lens -->
  <circle cx="32" cy="33" r="6.5" fill="#E8F4F8" stroke="#C5A059" stroke-width="1.75"/>
  <circle cx="32" cy="33" r="2.5" fill="#FFFFFF"/>
  <path d="M32 29V37M28 33H36" stroke="#C5A059" stroke-width="1" stroke-linecap="round"/>

  <!-- Lower Sage Green & Gold Curves -->
  <path d="M14 31C24 38 40 38 50 31" stroke="#C5A059" stroke-width="1.75" stroke-linecap="round"/>
  <path d="M13 32C22 47 42 47 51 32" stroke="#9AB8A8" stroke-width="2.5" stroke-linecap="round"/>
</svg>
